<svg fill="none" height="24" viewBox="0 0 24 24" width="24" xmlns="http://www.w3.org/2000/svg"><path d="m0 2.07972c0-.55157.219113-1.08056.609137-1.470583.390023-.390024.919013-.609137 1.470583-.609137h19.84058c.5516 0 1.0805.219113 1.4706.609137.39.390023.6091.919013.6091 1.470583v19.84058c0 .5516-.2191 1.0805-.6091 1.4706-.3901.39-.919.6091-1.4706.6091h-19.84058c-.55157 0-1.08056-.2191-1.470583-.6091-.390024-.3901-.609137-.919-.609137-1.4706z" fill="#293754"/><g fill="#fff"><path d="m19.401 17.239c.0303.0003.0602-.0056.0881-.0174.0279-.0117.053-.0291.0739-.051.0208-.0219.037-.0478.0474-.0762s.0149-.0586.0132-.0888c0-.1655-.0999-.2446-.3048-.2446h-.331v.8666h.1245v-.3778h.153l.0035.0046.2374.3732h.1332l-.2555-.3862zm-.144-.0868h-.1443v-.293h.183c.0945 0 .2023.0155.2023.1392 0 .1424-.1091.1538-.2417.1538zm-3.1039-.9992h-1.7656v-2.765c0-.6594-.0118-1.5081-.9183-1.5081-.9196 0-1.0603.7183-1.0603 1.4601v2.8128h-1.7656v-5.686h1.695v.7771h.0237c.1696-.29.4148-.5286.7093-.6904.2945-.1617.6273-.2406.9631-.2281 1.7895 0 2.1194 1.1771 2.1194 2.7084zm-7.50195-6.46339c-.20265.00004-.40075-.06002-.56927-.17257-.16851-.11255-.29987-.27255-.37745-.45976-.07758-.1872-.09791-.39321-.05841-.59197s.13705-.38134.28032-.52466c.14326-.14332.32581-.24093.52456-.2805.19874-.03957.40476-.01932.59199.05819.18723.07752.34728.20882.45989.37729.11262.16847.17274.36656.17278.5692.00002.13456-.02645.2678-.07792.39211-.05147.12432-.12692.23729-.22205.33245-.09512.09516-.20806.17065-.33236.22216s-.25753.07804-.39208.07806zm.88279 6.46339h-1.76743v-5.6862h1.76743zm7.49936-10.15219h-10.154c-.23046-.0026-.45254.0864-.61741.24745-.16488.16105-.25908.38097-.26189.61144v10.1961c.00272.2306.09685.4507.26172.6119.16488.1612.387.2504.61758.2479h10.154c.231.0029.4538-.086.6193-.2472s.2603-.3815.2635-.6126v-10.19684c-.0033-.23092-.0981-.45109-.2637-.61213-.1655-.16105-.3882-.2498-.6191-.24675"/><path d="m19.2721 16.375c-.2148.002-.42.0891-.5708.2421s-.2349.3595-.2339.5743.0871.4205.2394.572c.1522.1515.3583.2366.5731.2366.2149 0 .421-.0851.5732-.2366.1523-.1515.2383-.3572.2394-.572.001-.2148-.0831-.4213-.2339-.5743s-.356-.2401-.5708-.2421zm0 1.532c-.1409.0023-.2793-.0372-.3977-.1135-.1185-.0763-.2117-.1861-.2677-.3153-.0561-.1293-.0726-.2723-.0474-.411.0251-.1386.0909-.2667.1889-.368.0979-.1012.2237-.1712.3615-.201.1377-.0298.2812-.0181.4122.0337.1311.0517.2439.1412.3241.257.0802.1159.1243.2529.1267.3938v.012c.0039.1848-.0657.3637-.1936.4972s-.3036.2107-.4884.2147h-.0184"/></g></svg>