<svg fill="none" height="24" viewBox="0 0 24 24" width="24" xmlns="http://www.w3.org/2000/svg" xmlns:xlink="http://www.w3.org/1999/xlink"><clipPath id="a"><path d="m6 6h12v12h-12z"/></clipPath><path d="m0 2.07972c0-.55157.219113-1.08056.609137-1.470583.390023-.390024.919013-.609137 1.470583-.609137h19.84058c.5516 0 1.0805.219113 1.4706.609137.39.390023.6091.919013.6091 1.470583v19.84058c0 .5516-.2191 1.0805-.6091 1.4706-.3901.39-.919.6091-1.4706.6091h-19.84058c-.55157 0-1.08056-.2191-1.470583-.6091-.390024-.3901-.609137-.919-.609137-1.4706z" fill="#293754"/><g clip-path="url(#a)" fill="#fff"><path d="m12 7.08106c1.6022 0 1.7917.0062 2.4246.03502.5849.02667.9026.12432 1.1141.20649.261.09607.497.2495.6907.44895.1995.19373.3529.42977.449.6907.0821.21149.1798.52921.2065 1.11416.0288.63282.035.82242.035 2.42462 0 1.6021-.0062 1.7917-.035 2.4245-.0267.585-.1244.9027-.2065 1.1142-.1.2587-.2529.4936-.449.6897s-.431.3491-.6897.449c-.2115.0822-.5292.1798-1.1142.2065-.6326.0288-.8224.035-2.4246.035-1.6021 0-1.792-.0062-2.42453-.035-.58495-.0267-.90267-.1243-1.11416-.2065-.26093-.0961-.49697-.2495-.6907-.449-.19945-.1937-.35287-.4297-.44895-.6906-.08217-.2115-.17982-.5293-.20649-1.1142-.02882-.6328-.03501-.8224-.03501-2.4246s.00619-1.7918.03501-2.42457c.02667-.58495.12432-.90267.20649-1.11417.09608-.26092.2495-.49696.44895-.69069.19373-.19946.42977-.35288.6907-.44895.21149-.08217.52921-.17982 1.11416-.2065.63283-.02882.82243-.03501 2.42453-.03501zm.0009-1.08201c-1.6295 0-1.8339.00691-2.47383.03621-.63997.02929-1.07582.13147-1.45689.27961-.40046.15075-.76327.38693-1.0632.69212-.30519.29993-.54137.66274-.69212 1.0632-.14814.38107-.2496.81788-.27866 1.45641-.02905.6385-.0362.8438-.0362 2.4734s.00691 1.8339.0362 2.4739c.0293.64.13052 1.0749.27866 1.4559.15081.4003.38699.763.69212 1.0627.29983.3054.66266.5417 1.0632.6924.38107.1484.81788.2499 1.45641.2789.63851.0291.84431.0362 2.47391.0362 1.6295 0 1.8339-.0069 2.4738-.0362.64-.0293 1.0744-.1305 1.4555-.2789.3987-.154.7608-.3898 1.0631-.692.3022-.3023.5379-.6644.692-1.0631.1484-.381.2498-.8179.2789-1.4564.029-.6385.0362-.8443.0362-2.4739 0-1.6295-.0069-1.8339-.0362-2.47385-.0293-.63996-.1305-1.07439-.2789-1.45546-.1506-.40033-.3868-.76299-.6919-1.06272-.2999-.30536-.6627-.54171-1.0632-.6926-.3811-.14814-.8179-.2496-1.4564-.27866s-.8438-.0362-2.4734-.0362z"/><path d="m12 8.91904c-.6093 0-1.205.18069-1.7117.51924-.50662.33854-.90151.81972-1.13471 1.38272-.23319.563-.2942 1.1824-.17532 1.7801.11888.5976.41231 1.1466.8432 1.5775.43083.4309.97983.7243 1.57753.8432.5976.1189 1.2171.0579 1.7801-.1753s1.0441-.6281 1.3827-1.1348c.3385-.5066.5192-1.1023.5192-1.7117.0001-.4046-.0796-.8052-.2344-1.1791-.1549-.3738-.3818-.7134-.6679-.99954-.2861-.2861-.6258-.51304-.9996-.66786s-.7744-.23449-1.1791-.23446zm0 5.08166c-.3956 0-.7824-.1174-1.1114-.3372-.329-.2199-.5855-.5323-.7369-.8979-.1514-.3655-.19104-.7678-.1138-1.1559.0771-.3881.2677-.7446.5475-1.0243.2798-.2798.6363-.4704 1.0243-.5476.3881-.07717.7904-.0376 1.156.1139.3655.1514.678.4078.8978.7368s.3372.7158.3372 1.1115c0 .5306-.2108 1.0395-.586 1.4147s-.8841.586-1.4147.586z"/><path d="m15.2029 9.51707c.3976 0 .72-.32235.72-.71999s-.3224-.71999-.72-.71999-.72.32235-.72.71999.3224.71999.72.71999z"/></g></svg>