<svg width="200" height="61" viewBox="0 0 200 60.9" xmlns="http://www.w3.org/2000/svg"><g fill="#293754"><path d="m82.5 18.3c5 0 9.2-4.1 9.2-9.2 0-5-4.1-9.2-9.2-9.2-5 0-9.2 4.1-9.2 9.2s4.1 9.2 9.2 9.2"/><path d="m45.8 0c-6.3 0-10.1 7.3-18.3 7.3-8.3 0-12-7.3-18.3-7.3-5.1 0-9.2 4.1-9.2 9.2 0 5 4.1 9.2 9.2 9.2 6.3 0 10.1-7.3 18.3-7.3 8.3 0 12 7.3 18.3 7.3 5 0 9.2-4.1 9.2-9.2s-4.1-9.2-9.2-9.2z"/><path d="m.1 42h2l.1 2.5c.5-.8 1.2-1.5 2.1-2s1.9-.7 2.9-.7c1.9.1 3.4.7 4.6 1.9s1.8 2.8 1.8 4.8-.6 3.7-1.8 4.8-2.8 1.8-4.7 1.8c-1 0-1.9-.2-2.8-.7-.9-.4-1.6-1.1-2-2v8.4h-2.2zm10 9.9c.8-.8 1.3-2 1.3-3.4s-.4-2.6-1.3-3.4c-.8-.8-1.9-1.3-3.3-1.3s-2.4.4-3.2 1.3-1.3 2-1.3 3.3.4 2.4 1.3 3.3c.8.9 1.9 1.3 3.2 1.3 1.4.1 2.5-.3 3.3-1.1z"/><path d="m17.7 43.6c1.3-1.3 2.9-1.9 4.8-1.9 2 0 3.6.6 4.8 1.9 1.3 1.3 1.9 2.9 1.9 4.8s-.7 3.5-1.9 4.8c-1.3 1.2-2.9 1.8-4.8 1.8s-3.5-.6-4.8-1.9-1.9-2.8-1.9-4.8c0-1.9.7-3.5 1.9-4.7zm8 1.4c-.9-.9-2-1.3-3.2-1.3-1.3 0-2.4.4-3.3 1.3-.8.9-1.3 2-1.3 3.5 0 1.4.4 2.5 1.3 3.4.8.9 1.9 1.3 3.2 1.3s2.4-.4 3.3-1.3c.8-.8 1.3-2 1.3-3.4 0-1.5-.4-2.7-1.3-3.5z"/><path d="m33 42 3.5 10.6 3.4-10.6h1.7l3.4 10.6 3.5-10.6h2.3l-4.5 12.9h-2.5l-1.6-4.9-1.4-4.7-1.4 4.7-1.7 4.8h-2.4l-4.6-12.8z"/><path d="m64.8 52.8c-.6.7-1.4 1.3-2.5 1.7-1 .4-2 .6-3.1.6-2 0-3.7-.6-4.9-1.9-1.3-1.2-1.9-2.9-1.9-4.9 0-1.9.6-3.5 1.9-4.8s2.9-1.9 4.8-1.9c2.1 0 3.7.7 5 1.9 1.2 1.3 1.7 3.2 1.5 5.6h-11c.1 1.1.6 2.1 1.5 2.8s1.9 1.1 3.2 1.1c.8 0 1.6-.1 2.3-.4.8-.3 1.4-.7 1.8-1.2zm-1.3-5.3c-.1-1.3-.5-2.2-1.3-2.9s-1.8-1-3.1-1c-1.1 0-2.2.4-3 1s-1.4 1.6-1.6 2.8z"/><path d="m70.5 42 .2 1.9c.8-1.4 2.1-2.2 3.9-2.2 1.1-.1 2.2.3 3 1l-1 1.8c-.7-.5-1.4-.7-2.2-.7-1.1 0-2 .4-2.7 1.1s-1.1 1.6-1.1 2.8v7.2h-2.2v-13z"/><path d="m90.7 52.8c-.6.7-1.4 1.3-2.5 1.7-1 .4-2 .6-3.1.6-2 0-3.7-.6-4.9-1.9-1.3-1.2-1.9-2.9-1.9-4.9 0-1.9.6-3.5 1.9-4.8s2.9-1.9 4.8-1.9c2.1 0 3.7.7 5 1.9 1.2 1.3 1.7 3.2 1.5 5.6h-11c.1 1.1.6 2.1 1.5 2.8s1.9 1.1 3.2 1.1c.8 0 1.6-.1 2.3-.4.8-.3 1.4-.7 1.8-1.2zm-1.2-5.3c-.1-1.3-.5-2.2-1.3-2.9s-1.8-1-3.1-1c-1.1 0-2.2.4-3 1-.8.7-1.4 1.6-1.6 2.8z"/><path d="m107.1 36.6v18.3h-2l-.1-2.3c-.5.8-1.2 1.5-2 1.9s-1.8.7-2.8.7c-1.9 0-3.5-.6-4.7-1.8s-1.9-2.8-1.9-4.9.6-3.7 1.8-4.9 2.8-1.7 4.7-1.7c1 0 1.9.2 2.8.7s1.6 1.1 2 1.9v-7.7zm-6.7 7.1c-1.3 0-2.4.4-3.2 1.3-.8.8-1.3 2-1.3 3.4s.4 2.6 1.3 3.4c.8.8 1.8 1.2 3.2 1.2 1.3 0 2.4-.4 3.2-1.3.9-.8 1.3-2 1.3-3.4s-.4-2.5-1.3-3.4c-.8-.7-1.9-1.2-3.2-1.2z"/><path d="m119.9 44.3c.4-.8 1.1-1.5 2-1.9s1.9-.7 2.8-.7c1.9 0 3.5.6 4.7 1.7 1.2 1.2 1.8 2.8 1.8 4.9s-.6 3.7-1.9 4.9-2.8 1.8-4.7 1.8c-1 0-1.9-.2-2.8-.7-.8-.4-1.6-1.1-2-1.9l-.1 2.3h-2v-18.1h2.2zm1.4.8c-.9.9-1.3 2-1.3 3.4s.4 2.5 1.3 3.4 2 1.3 3.2 1.3c1.3 0 2.4-.4 3.2-1.3.8-.8 1.3-2 1.3-3.4s-.4-2.6-1.3-3.4c-.8-.8-1.9-1.3-3.2-1.3-1.3-.1-2.4.4-3.2 1.3z"/><path d="m137.3 60.9h-2.3l2.7-6.2-5.1-12.7h2.4l2.5 6.7 1.4 3.7 1.4-3.7 2.8-6.7h2.3z"/><path d="m164.6 54.9-.1-2.3c-.5.8-1.1 1.5-2 1.9s-1.8.7-2.7.7c-1.9 0-3.5-.6-4.7-1.9-1.3-1.2-1.9-2.9-1.9-4.9s.7-3.7 1.9-4.8c1.3-1.2 2.8-1.8 4.7-1.8 1 0 1.9.2 2.8.7.9.4 1.6 1.1 2 1.9v-2.4h2.1v12.9zm-4.6-11.1c-1.3 0-2.4.4-3.3 1.3-.9.8-1.3 2-1.3 3.4s.4 2.6 1.3 3.4c.9.9 2 1.3 3.3 1.3.8 0 1.6-.2 2.3-.5.7-.4 1.2-.8 1.5-1.4.4-.5.6-1.2.8-1.9s.2-1.3 0-2-.4-1.3-.8-1.9c-.4-.5-.8-1-1.5-1.4-.7-.2-1.4-.4-2.3-.3z"/><path d="m183.4 36.6v18.3h-2l-.1-2.3c-.5.8-1.2 1.5-2 1.9s-1.8.7-2.8.7c-1.9 0-3.5-.6-4.7-1.8s-1.9-2.8-1.9-4.9.6-3.7 1.8-4.9 2.8-1.7 4.7-1.7c1 0 1.9.2 2.8.7.9.4 1.6 1.1 2 1.9v-7.7zm-6.9 7.1c-1.3 0-2.4.4-3.2 1.3-.8.8-1.3 2-1.3 3.4s.4 2.6 1.3 3.4c.8.8 1.9 1.3 3.2 1.3s2.4-.4 3.2-1.3c.9-.8 1.3-2 1.3-3.4s-.4-2.5-1.3-3.4c-.8-.8-1.8-1.3-3.2-1.3z"/><path d="m197.8 54.9-.1-2.3c-.5.8-1.1 1.5-2 1.9s-1.8.7-2.7.7c-1.9 0-3.5-.6-4.7-1.9-1.3-1.2-1.9-2.9-1.9-4.9s.7-3.7 1.9-4.8c1.3-1.2 2.8-1.8 4.7-1.8 1 0 1.9.2 2.8.7s1.6 1.1 2 1.9v-2.4h2.1v12.9zm-4.7-11.1c-1.3 0-2.4.4-3.3 1.3-.9.8-1.3 2-1.3 3.4s.4 2.6 1.3 3.4c.9.9 2 1.3 3.3 1.3.8 0 1.6-.2 2.3-.5.7-.4 1.2-.8 1.5-1.4.4-.5.6-1.2.8-1.9s.2-1.3 0-2-.4-1.3-.8-1.9c-.4-.5-.8-1-1.5-1.4-.7-.2-1.4-.4-2.3-.3z"/></g></svg>
