<svg fill="none" height="24" viewBox="0 0 24 24" width="24" xmlns="http://www.w3.org/2000/svg"><path d="m0 2.07972c0-.55157.219113-1.08056.609137-1.470583.390023-.390024.919013-.609137 1.470583-.609137h19.84058c.5516 0 1.0805.219113 1.4706.609137.39.390023.6091.919013.6091 1.470583v19.84058c0 .5516-.2191 1.0805-.6091 1.4706-.3901.39-.919.6091-1.4706.6091h-19.84058c-.55157 0-1.08056-.2191-1.470583-.6091-.390024-.3901-.609137-.919-.609137-1.4706z" fill="#293754"/><path d="m18 12c0-3.31371-2.6863-6-6-6-3.31371 0-6 2.68629-6 6 0 2.9947 2.1941 5.477 5.0625 5.9271v-4.1927h-1.52344v-1.7344h1.52344v-1.3219c0-1.50372.8958-2.33435 2.2663-2.33435.6562 0 1.3431.11719 1.3431.11719v1.47656h-.7566c-.7453 0-.9778.4625-.9778.9375v1.125h1.6641l-.2661 1.7344h-1.398v4.1927c2.8684-.4501 5.0625-2.9324 5.0625-5.9271z" fill="#fff"/><path d="m14.3355 13.7344.2661-1.7344h-1.6641v-1.125c0-.4745.2325-.9375.9778-.9375h.7566v-1.47656s-.6866-.11719-1.3431-.11719c-1.3705 0-2.2663.83063-2.2663 2.33435v1.3219h-1.52344v1.7344h1.52344v4.1927c.6212.0972 1.2538.0972 1.875 0v-4.1927z" fill="#293754"/></svg>