<svg fill="none" height="24" viewBox="0 0 24 24" width="24" xmlns="http://www.w3.org/2000/svg"><path d="m0 2.07972c0-.55157.219113-1.08056.609137-1.470583.390023-.390024.919013-.609137 1.470583-.609137h19.84058c.5516 0 1.0805.219113 1.4706.609137.39.390023.6091.919013.6091 1.470583v19.84058c0 .5516-.2191 1.0805-.6091 1.4706-.3901.39-.919.6091-1.4706.6091h-19.84058c-.55157 0-1.08056-.2191-1.470583-.6091-.390024-.3901-.609137-.919-.609137-1.4706z" fill="#293754"/><path clip-rule="evenodd" d="m17.2686 9.58753v.33275c.0092.97282-.175 1.93782-.542 2.83882s-.9094 1.72-1.5958 2.4096c-.6863.6895-1.5028 1.2358-2.4021 1.607-.8992.3712-1.8633.56-2.83617.5553-1.4112.0054-2.79358-.3992-3.9792-1.1646.20448.0279.41062.0418.61698.0416 1.16911-.0011 2.30411-.3941 3.22357-1.1161-.54184-.0101-1.067-.1892-1.50204-.5124-.43503-.3232-.7582-.7742-.9243-1.2901.38852.0765.78946.0623 1.17158-.0416-.58721-.1185-1.11526-.4367-1.49439-.9005-.37914-.4638-.58596-1.0446-.58533-1.6437v-.0346c.36124.201.76531.3127 1.17851.3258-.55092-.3661-.94105-.929-1.09055-1.57337-.14949-.64438-.04704-1.32152.28639-1.89283.65074.80165 1.46298 1.45732 2.38386 1.92433.92089.46701 1.92979.73487 2.96099.78627-.129-.5572-.0708-1.14139.1658-1.66209s.6383-.94884 1.1429-1.21811 1.0839-.36462 1.6481-.2713c.5643.09333 1.082.37013 1.473.78752.5795-.11565 1.1351-.32897 1.643-.63085-.1924.60037-.5965 1.11036-1.1369 1.43501.514-.0635 1.0161-.20128 1.4905-.40901-.3538.50984-.7922.95533-1.2964 1.31716z" fill="#fff" fill-rule="evenodd"/></svg>