<svg fill="none" height="24" viewBox="0 0 24 24" width="24" xmlns="http://www.w3.org/2000/svg"><path d="m0 2.07972c0-.55157.212247-1.08056.590048-1.470583.377801-.390024.890212-.609137 1.424502-.609137h19.97095c.5342 0 1.0466.219113 1.4245.609137.3778.390023.59.919013.59 1.470583v19.84058c0 .5516-.2122 1.0805-.59 1.4706-.3779.39-.8903.6091-1.4245.6091h-19.97095c-.53429 0-1.046701-.2191-1.424502-.6091-.377801-.3901-.590048-.919-.590048-1.4706z" fill="#293754"/><g clip-rule="evenodd" fill-rule="evenodd"><path d="m17.9228 8.49913c-.0735-.2829-.2166-.54137-.4155-.7503-.1988-.20893-.4466-.36121-.7193-.44207-1.6802-.20567-3.3715-.2983-5.0633-.2773-1.694-.02087-3.38752.07176-5.06992.2773-.27457.08001-.52452.23179-.72567.44066-.20115.20888-.34672.46779-.42262.75171-.19187 1.08402-.28628 2.18397-.28204 3.28597-.00654 1.0876.08337 2.1736.26861 3.2444.0759.2839.22147.5428.42262.7517.20115.2088.4511.3606.72567.4406 1.6824.2056 3.37595.2982 5.06995.2773 1.6918.021 3.3831-.0716 5.0632-.2773.2752-.0787.5258-.2301.7271-.4392.2014-.209.3465-.4686.4212-.7531.1853-1.0708.2752-2.1568.2686-3.2444.0087-1.1015-.0812-2.20152-.2686-3.28597z" fill="#fff"/><path d="m10.3346 13.6153 3.3979-1.9758-3.3979-1.97571z" fill="#293754"/></g></svg>